HIERARCHY
ROOT root     
{
	OFFSET 0.0000 0.0000 0.0000
	CHANNELS 6 Xposition Yposition Zposition Zrotation Yrotation Xrotation
	JOINT pelvis   
	{
		OFFSET 0.0000 0.0000 0.0000
		CHANNELS 3 Zrotation Yrotation Xrotation
		JOINT thorax   
		{
			OFFSET 0.0000 23.0750 -5.0000
			CHANNELS 3 Zrotation Yrotation Xrotation
			JOINT rclavicle
			{
				OFFSET 0.0000 28.0009 0.0000
				CHANNELS 3 Zrotation Yrotation Xrotation
				JOINT rhumerus 
				{
					OFFSET -18.5725 5.5939 0.0000
					CHANNELS 3 Zrotation Yrotation Xrotation
					JOINT rradius  
					{
						OFFSET -24.8459 0.0000 0.0000
						CHANNELS 3 Zrotation Yrotation Xrotation
						JOINT rhand    
						{
							OFFSET -24.5477 0.0000 0.0000
							CHANNELS 3 Zrotation Yrotation Xrotation
							End Site
							{
								OFFSET -8.1826 0.0000 0.0000
							}
						}
					}
				}
			}
			JOINT lclavicle
			{
				OFFSET 0.0000 28.0009 0.0000
				CHANNELS 3 Zrotation Yrotation Xrotation
				JOINT lhumerus 
				{
					OFFSET 18.5725 5.5939 0.0000
					CHANNELS 3 Zrotation Yrotation Xrotation
					JOINT lradius  
					{
						OFFSET 24.8459 0.0000 0.0000
						CHANNELS 3 Zrotation Yrotation Xrotation
						JOINT lhand    
						{
							OFFSET 24.5477 0.0000 0.0000
							CHANNELS 3 Zrotation Yrotation Xrotation
							End Site
							{
								OFFSET 8.1826 0.0000 0.0000
							}
						}
					}
				}
			}
			JOINT head     
			{
				OFFSET 0.0000 35.2030 0.0000
				CHANNELS 3 Zrotation Yrotation Xrotation
				End Site
				{
					OFFSET 0.0000 11.7343 0.0000
				}
			}
		}
		JOINT rfemur   
		{
			OFFSET -8.2817 0.0000 0.0000
			CHANNELS 3 Zrotation Yrotation Xrotation
			JOINT rtibia   
			{
				OFFSET 0.0000 -43.3627 0.0000
				CHANNELS 3 Zrotation Yrotation Xrotation
				JOINT rfoot    
				{
					OFFSET 0.0000 -38.2947 0.0000
					CHANNELS 3 Zrotation Yrotation Xrotation
					JOINT rtoes    
					{
						OFFSET 0.0000 0.0000 16.6054
						CHANNELS 3 Zrotation Yrotation Xrotation
						End Site
						{
							OFFSET 0.0000 0.0000 5.5351
						}
					}
				}
			}
		}
		JOINT lfemur   
		{
			OFFSET 8.2817 0.0000 0.0000
			CHANNELS 3 Zrotation Yrotation Xrotation
			JOINT ltibia   
			{
				OFFSET 0.0000 -43.3627 0.0000
				CHANNELS 3 Zrotation Yrotation Xrotation
				JOINT lfoot    
				{
					OFFSET 0.0000 -38.2947 0.0000
					CHANNELS 3 Zrotation Yrotation Xrotation
					JOINT ltoes    
					{
						OFFSET 0.0000 0.0000 16.6054
						CHANNELS 3 Zrotation Yrotation Xrotation
						End Site
						{
							OFFSET 0.0000 0.0000 5.5351
						}
					}
				}
			}
		}
	}
}
MOTION
Frames: 9
Frame Time: .0333333
1.6043 79.421 0.8978 176.907 67.8918 -159.201 0 -0 0 8.85005 -2.49435 21.2488 19.7354 -4.86145 -1.38337e-05 55.3506 4.85453 -0.567122 -5.05863e-06 83.2631 -5.13483e-06 -8.868 2.94715 -0.228596 -19.1384 10.2979 -2.13866e-05 -58.4559 11.5654 12.7926 0 -53.7254 0 -0.818292 7.03996 -0.0502997 2.10954 2.57907 -13.0765 2.51548 -13.0054 -47.5763 -0 -0 53.4341 5.87898e-06 -11.17 -8.38504 1.64941 -4.09092e-08 -41.4702 -1.09325 11.4832 -45.9222 -0 -0 71.9058 -4.12532e-05 24.0063 -8.15269 -3.61393 2.56112e-06 -5.9443 
1.9988 79.576 0.8016 176.872 67.502 -159.182 0 -0 0 8.63503 -2.33259 21.3281 19.4687 -4.81596 3.69686e-06 55.2385 5.24974 -0.401737 -2.01342e-06 83.5851 -1.79965e-06 -8.81037 2.96714 -0.228606 -19.1587 10.3236 -6.5273e-06 -58.3495 11.8948 12.8121 0 -53.5287 0 -0.948605 7.0742 -0.0586004 2.03624 2.47311 -12.8247 2.46833 -13.1114 -47.0796 -0 -0 53.0757 -1.71704e-06 -11.3302 -8.27973 1.65276 -5.36013e-06 -41.9061 -1.70235 11.755 -46.9957 -0 -0 71.4085 -2.45996e-06 24.0071 -8.28096 -3.67017 3.39054e-06 -5.99436 
2.3937 79.723 0.6948 176.859 67.1225 -159.147 0 -0 0 8.41642 -2.17435 21.4036 19.2103 -4.77955 2.77939e-06 55.112 5.629 -0.24283 -5.61661e-06 83.9295 -5.69279e-06 -8.74647 2.97754 -0.227807 -19.1742 10.3473 7.3074e-05 -58.2437 12.2249 12.8466 0 -53.3555 0 -1.08361 7.09319 -0.0672002 1.95806 2.37188 -12.5798 2.41172 -13.211 -46.5845 -0 -0 52.7363 5.65311e-06 -11.4611 -8.17781 1.65188 5.24554e-06 -42.3867 -2.30767 12.0068 -48.0512 -0 -0 70.8549 -2.66817e-05 24.0134 -8.37943 -3.71461 -4.94451e-06 -5.9511 
2.7888 79.863 0.578 176.862 66.7504 -159.098 0 -0 0 8.19404 -2.01925 21.4734 18.9468 -4.74006 -2.33852e-05 54.9885 5.9739 -0.0982628 -5.78415e-06 84.2955 -5.9406e-06 -8.67963 2.99814 -0.227608 -19.1852 10.3572 -1.8924e-05 -58.1418 12.5729 12.8837 0 -53.2177 0 -1.22521 7.10814 -0.0761003 1.87587 2.27544 -12.3405 2.34204 -13.2967 -46.0892 -0 -0 52.4174 -1.75597e-05 -11.5625 -8.07279 1.64572 1.3784e-05 -42.9318 -2.9044 12.2369 -49.0886 -0 -0 70.246 -2.02944e-05 24.0222 -8.4261 -3.73655 -3.59772e-06 -6.08858 
3.1846 79.995 0.4498 176.884 66.3851 -159.036 0 -0 0 7.96707 -1.87248 21.5393 18.6933 -4.71263 -2.09068e-05 54.8521 6.30667 0.0480912 -2.41094e-06 84.6943 -2.19728e-06 -8.61583 3.00764 -0.226608 -19.1897 10.3684 -3.75106e-07 -58.0412 12.9221 12.9371 0 -53.1109 0 -1.36919 7.11249 -0.0851002 1.78904 2.18863 -12.1091 2.2602 -13.3756 -45.5978 -0 -0 52.1211 -2.79871e-05 -11.6286 -7.9567 1.63182 1.30167e-05 -43.5489 -3.49209 12.4434 -50.1045 -0 -0 69.5898 -1.63365e-05 24.0264 -8.46546 -3.7547 6.50078e-07 -6.03863 
3.5812 80.119 0.3103 176.915 66.0272 -158.969 0 -0 0 7.73498 -1.73519 21.6018 18.4411 -4.68814 -1.92961e-05 54.7151 6.61407 0.190668 -0 85.1113 -0 -8.55735 3.02012 -0.225999 -19.1886 10.3709 4.05245e-05 -57.9438 13.2869 12.9947 4.48377e-07 -53.0427 -8.98472e-07 -1.51705 7.11588 -0.0942973 1.69805 2.11156 -11.8847 2.16507 -13.4457 -45.1094 -0 -0 51.8519 4.08215e-06 -11.6622 -7.81937 1.60844 -1.38576e-05 -44.2579 -4.06738 12.6238 -51.0975 -0 -0 68.8838 6.90512e-06 24.0197 -8.48427 -3.76182 -1.15737e-08 -6.03041 
3.9785 80.235 0.1589 176.955 65.6724 -158.895 0 -0 0 7.49697 -1.60987 21.6591 18.1936 -4.66734 -7.4699e-06 54.5762 6.89738 0.332072 -3.72854e-06 85.5377 -4.03064e-06 -8.50692 3.03508 -0.225795 -19.185 10.3642 -1.56319e-05 -57.8498 13.6688 13.0531 0 -53.0196 0 -1.66812 7.12097 -0.103801 1.60143 2.04631 -11.6681 2.05812 -13.51 -44.6297 -0 -0 51.6153 1.81029e-05 -11.6645 -7.65075 1.5743 9.49964e-07 -45.0697 -4.63148 12.7806 -52.0648 -0 -0 68.1288 6.8547e-05 23.9917 -8.49204 -3.76029 -4.23611e-06 -6.07427 
4.3768 80.343 -0.0057 177.004 65.3203 -158.819 0 -0 0 7.25418 -1.49893 21.7145 17.9587 -4.65876 -2.04929e-05 54.4299 7.16834 0.479855 -3.87504e-06 85.997 -3.61346e-06 -8.46602 3.0428 -0.225305 -19.177 10.3617 -2.9335e-05 -57.7556 14.0513 13.1266 4.48154e-07 -53.0316 -8.98255e-07 -1.82051 7.12624 -0.1134 1.49758 1.99469 -11.4594 1.9418 -13.5751 -44.1609 -0 -0 51.4172 -1.42326e-05 -11.6354 -7.44424 1.52823 7.96641e-06 -45.971 -5.18608 12.913 -53.0042 -0 -0 67.3242 8.00276e-05 23.9309 -8.5161 -3.76003 4.03225e-06 -5.9877 
4.7758 80.444 -0.1842 177.055 64.9755 -158.74 0 -0 0 7.00766 -1.40277 21.7644 17.7396 -4.66198 -1.14765e-05 54.2716 7.42707 0.633227 -4.76322e-06 86.4714 -5.06526e-06 -8.43258 3.04493 -0.224506 -19.1656 10.3667 4.19184e-05 -57.665 14.4281 13.2146 4.48939e-07 -53.0734 -8.98994e-07 -1.97451 7.13359 -0.123101 1.38365 1.95701 -11.2621 1.82025 -13.6458 -43.7099 -0 -0 51.2616 1.94814e-05 -11.5807 -7.19496 1.47023 4.22912e-06 -46.946 -5.73308 13.0244 -53.9108 -0 -0 66.4656 2.7061e-05 23.8269 -8.55529 -3.75861 2.28415e-06 -5.83533 
